<svg width="33" height="33" viewBox="0 0 33 33" fill="none" xmlns="http://www.w3.org/2000/svg">
<path d="M23.1381 0.6875H10.2058C7.67816 0.690323 5.25483 1.69569 3.46749 3.48302C1.68015 5.27036 0.67479 7.69369 0.671967 10.2214L0.671967 23.1536C0.67479 25.6813 1.68015 28.1046 3.46749 29.892C5.25483 31.6793 7.67816 32.6847 10.2058 32.6875H23.1381C25.6658 32.6847 28.0891 31.6793 29.8764 29.892C31.6638 28.1046 32.6691 25.6813 32.672 23.1536V10.2214C32.6691 7.69369 31.6638 5.27036 29.8764 3.48302C28.0891 1.69569 25.6658 0.690323 23.1381 0.6875ZM29.4528 23.1536C29.4528 24.8284 28.7875 26.4345 27.6032 27.6188C26.419 28.803 24.8129 29.4683 23.1381 29.4683H10.2058C8.53108 29.4683 6.92492 28.803 5.74069 27.6188C4.55646 26.4345 3.89117 24.8284 3.89117 23.1536V10.2214C3.89117 8.54661 4.55646 6.94045 5.74069 5.75622C6.92492 4.57199 8.53108 3.9067 10.2058 3.9067H23.1381C24.8129 3.9067 26.419 4.57199 27.6032 5.75622C28.7875 6.94045 29.4528 8.54661 29.4528 10.2214V23.1536Z" fill="white"/>
<path d="M16.672 8.41016C15.0349 8.41016 13.4345 8.89561 12.0733 9.80514C10.7121 10.7147 9.65119 12.0074 9.0247 13.5199C8.39821 15.0324 8.23429 16.6967 8.55367 18.3023C8.87306 19.908 9.6614 21.3828 10.819 22.5404C11.9766 23.6981 13.4515 24.4864 15.0571 24.8058C16.6628 25.1252 18.3271 24.9612 19.8396 24.3348C21.352 23.7083 22.6448 22.6473 23.5543 21.2861C24.4638 19.9249 24.9493 18.3246 24.9493 16.6875C24.9465 14.4931 24.0735 12.3893 22.5218 10.8376C20.9701 9.28596 18.8664 8.41298 16.672 8.41016ZM16.672 21.7456C15.6716 21.7456 14.6936 21.449 13.8618 20.8932C13.03 20.3374 12.3817 19.5474 11.9989 18.6232C11.616 17.6989 11.5158 16.6819 11.711 15.7007C11.9062 14.7195 12.3879 13.8182 13.0953 13.1108C13.8027 12.4035 14.704 11.9217 15.6852 11.7265C16.6663 11.5314 17.6834 11.6315 18.6076 12.0144C19.5319 12.3972 20.3218 13.0455 20.8776 13.8773C21.4334 14.7091 21.7301 15.6871 21.7301 16.6875C21.7295 18.0288 21.1964 19.315 20.248 20.2635C19.2995 21.212 18.0133 21.7451 16.672 21.7456Z" fill="white"/>
<path d="M24.9642 10.4582C26.06 10.4582 26.9482 9.56997 26.9482 8.47423C26.9482 7.3785 26.06 6.49023 24.9642 6.49023C23.8685 6.49023 22.9802 7.3785 22.9802 8.47423C22.9802 9.56997 23.8685 10.4582 24.9642 10.4582Z" fill="white"/>
</svg>
