<svg width="35" height="33" viewBox="0 0 35 33" fill="none" xmlns="http://www.w3.org/2000/svg">
<path d="M8.34804 32.6875H1.16917V11.096H8.34804V32.6875ZM4.7554 8.15417H4.71274C2.302 8.15417 0.742493 6.48803 0.742493 4.42083C0.742493 2.29817 2.35107 0.6875 4.79594 0.6875C7.24081 0.6875 8.77045 2.29817 8.81952 4.42083C8.81952 6.48803 7.26428 8.15417 4.7554 8.15417ZM34.2368 32.6875H27.0515V21.1334C27.0515 18.2278 26.0147 16.2523 23.4247 16.2523C21.4364 16.2608 20.2588 17.5899 19.7297 18.8763C19.5439 19.4408 19.4608 20.034 19.4844 20.6278V32.6875H12.3161C12.3161 32.6875 12.4122 13.1248 12.3161 11.0982H19.4907V14.1574C20.4486 12.6875 22.1468 10.5904 25.9613 10.5904C30.6953 10.5904 34.2368 13.6752 34.2368 20.3142V32.6875Z" fill="white"/>
</svg>
