<svg width="58" height="33" viewBox="0 0 58 33" fill="none" xmlns="http://www.w3.org/2000/svg">
<g clip-path="url(#clip0_2_61)">
<path d="M48.6563 14.91C48.0338 14.9099 47.413 14.9753 46.8041 15.105C46.4056 11.1567 44.5567 7.49676 41.6154 4.83342C38.6741 2.17009 34.8495 0.692807 30.8819 0.6875C30.4106 0.6875 29.9586 0.874772 29.6253 1.20812C29.292 1.54146 29.1047 1.99358 29.1047 2.465V30.91C29.1047 31.3814 29.292 31.8335 29.6253 32.1669C29.9586 32.5002 30.4106 32.6875 30.8819 32.6875H48.6563C49.8359 32.7073 51.0077 32.492 52.1033 32.0542C53.1988 31.6164 54.1963 30.9648 55.0375 30.1374C55.8787 29.3101 56.5468 28.3235 57.0029 27.2352C57.4589 26.1469 57.6938 24.9787 57.6938 23.7987C57.6938 22.6188 57.4589 21.4506 57.0029 20.3623C56.5468 19.274 55.8787 18.2874 55.0375 17.4601C54.1963 16.6327 53.1988 15.9811 52.1033 15.5433C51.0077 15.1055 49.8359 14.8902 48.6563 14.91Z" fill="white"/>
<path d="M23.7707 4.24268C23.2995 4.24334 22.8479 4.43082 22.5147 4.76402C22.1816 5.09723 21.9941 5.54896 21.9935 6.02018V30.9102C22.0107 31.3704 22.2056 31.806 22.5373 32.1255C22.8689 32.445 23.3114 32.6235 23.7719 32.6235C24.2324 32.6235 24.6749 32.445 25.0065 32.1255C25.3382 31.806 25.5331 31.3704 25.5503 30.9102V6.02018C25.5497 5.54852 25.3619 5.09642 25.0282 4.76314C24.6945 4.42987 24.2422 4.24268 23.7707 4.24268Z" fill="white"/>
<path d="M16.6619 11.355C16.1906 11.355 15.7385 11.5423 15.4052 11.8756C15.0719 12.2089 14.8847 12.6611 14.8847 13.1325V30.91C14.8847 31.3814 15.0719 31.8335 15.4052 32.1669C15.7385 32.5002 16.1906 32.6875 16.6619 32.6875C17.1332 32.6875 17.5853 32.5002 17.9186 32.1669C18.2518 31.8335 18.4391 31.3814 18.4391 30.91V13.1325C18.4391 12.6611 18.2518 12.2089 17.9186 11.8756C17.5853 11.5423 17.1332 11.355 16.6619 11.355Z" fill="white"/>
<path d="M9.55319 11.355C9.31959 11.3547 9.08822 11.4004 8.87232 11.4896C8.65641 11.5787 8.4602 11.7096 8.29491 11.8747C8.12962 12.0398 7.99849 12.2359 7.90902 12.4517C7.81955 12.6675 7.7735 12.8988 7.7735 13.1325V30.91C7.79075 31.3702 7.98567 31.8058 8.31731 32.1253C8.64894 32.4448 9.09148 32.6233 9.55194 32.6233C10.0124 32.6233 10.4549 32.4448 10.7866 32.1253C11.1182 31.8058 11.3131 31.3702 11.3304 30.91V13.1325C11.3304 12.6611 11.1431 12.2089 10.8098 11.8756C10.4766 11.5423 10.0245 11.355 9.55319 11.355Z" fill="white"/>
<path d="M2.44192 16.6875C1.97079 16.6882 1.51913 16.8756 1.18599 17.2088C0.852846 17.5421 0.665395 17.9938 0.664734 18.465V29.1325C0.664734 29.6039 0.851973 30.056 1.18526 30.3894C1.51855 30.7227 1.97058 30.91 2.44192 30.91C2.91326 30.91 3.3653 30.7227 3.69858 30.3894C4.03187 30.056 4.21911 29.6039 4.21911 29.1325V18.465C4.21911 17.9936 4.03187 17.5415 3.69858 17.2081C3.3653 16.8748 2.91326 16.6875 2.44192 16.6875Z" fill="white"/>
</g>
<defs>
<clipPath id="clip0_2_61">
<rect width="56.88" height="32" fill="white" transform="translate(0.664734 0.6875)"/>
</clipPath>
</defs>
</svg>
