<svg width="40" height="33" viewBox="0 0 40 33" fill="none" xmlns="http://www.w3.org/2000/svg">
<path d="M35.5072 8.65758L35.5328 9.70505C35.5328 20.3717 27.4036 32.6874 12.5427 32.6874C8.14866 32.6937 3.84576 31.4346 0.148331 29.0608C0.785939 29.1323 1.42701 29.1686 2.06862 29.1696C5.70684 29.1762 9.24198 27.9615 12.1074 25.72C10.4216 25.6841 8.78895 25.1235 7.43669 24.1163C6.08443 23.1092 5.07987 21.7055 4.56285 20.1008C5.06572 20.1965 5.57652 20.2443 6.08842 20.2437C6.80856 20.2449 7.52579 20.1524 8.22207 19.9685C6.39287 19.5952 4.74857 18.6021 3.56683 17.1571C2.38509 15.712 1.73833 13.9034 1.73577 12.0368V11.9386C2.85495 12.5646 4.10887 12.9108 5.39071 12.9477C3.67994 11.8056 2.46894 10.0545 2.00433 8.05089C1.53973 6.04729 1.85648 3.94197 2.89007 2.16372C4.92123 4.66208 7.45568 6.70491 10.3285 8.15932C13.2014 9.61373 16.3483 10.4471 19.5646 10.6053C19.4258 10.0021 19.3543 9.38535 19.3512 8.76638C19.3518 7.14709 19.839 5.56534 20.7495 4.22621C21.6601 2.88708 22.952 1.85233 24.4577 1.25614C25.9635 0.65995 27.6137 0.529809 29.1943 0.882591C30.7749 1.23537 32.2131 2.05481 33.3223 3.23465C35.138 2.88266 36.8791 2.21938 38.4687 1.27412C37.8632 3.14861 36.5989 4.7402 34.9098 5.75412C36.5119 5.56169 38.0762 5.13023 39.5505 4.47412C38.466 6.10094 37.0962 7.51824 35.5072 8.65758Z" fill="white"/>
</svg>
