<svg width="43" height="33" viewBox="0 0 43 33" fill="none" xmlns="http://www.w3.org/2000/svg">
<g clip-path="url(#clip0_2_56)">
<path d="M41.9668 7.5975C41.9668 7.5975 41.5318 4.47 40.2944 3.0975C38.6945 1.28 36.8771 1.28 36.0771 1.2075C30.18 0.76 21.308 0.6875 21.308 0.6875C21.308 0.6875 12.436 0.76 6.55886 1.1875C5.75891 1.26 3.94152 1.3325 2.34161 3.0775C1.03169 4.46 0.669212 7.5775 0.669212 7.5775C0.391899 10.0473 0.24171 12.5298 0.219238 15.015L0.219238 18.4375C0.236585 20.8918 0.38261 23.3435 0.656712 25.7825C0.656712 25.7825 1.09169 28.91 2.32911 30.2825C3.92902 32.1 6.03639 32.0325 6.98134 32.245C10.3286 32.615 21.308 32.6875 21.308 32.6875C21.308 32.6875 30.18 32.6875 36.0721 32.1875C36.8721 32.115 38.6895 32.0425 40.2894 30.2975C41.5393 28.915 41.9618 25.7975 41.9618 25.7975C42.2331 23.3532 42.3791 20.8967 42.3992 18.4375V15.015C42.3819 12.5367 42.2375 10.061 41.9668 7.5975ZM16.2183 25.125V9.3425L30.035 17.415L16.2183 25.125Z" fill="white"/>
</g>
<defs>
<clipPath id="clip0_2_56">
<rect width="42.18" height="32" fill="white" transform="translate(0.219238 0.6875)"/>
</clipPath>
</defs>
</svg>
